<?xml version="1.0" encoding="UTF-8"?>
<svg width="800px" height="800px" viewBox="0 0 800 800" version="1.1" xmlns="http://www.w3.org/2000/svg">
    <g stroke="none" stroke-width="1" fill="none" fill-rule="evenodd">
        <g transform="translate(100, 100)">
            <!-- House Base -->
            <path d="M300,50 L550,200 L550,500 L50,500 L50,200 L300,50" fill="#f1f5f9" stroke="#94a3b8" stroke-width="20"/>
            <!-- Roof -->
            <path d="M300,50 L550,200 L50,200 L300,50" fill="#e2e8f0" stroke="#94a3b8" stroke-width="20"/>
            <!-- Door -->
            <rect x="250" y="350" width="100" height="150" fill="#e2e8f0" stroke="#94a3b8" stroke-width="10"/>
            <!-- Window Left -->
            <rect x="120" y="250" width="80" height="80" fill="#e2e8f0" stroke="#94a3b8" stroke-width="10"/>
            <!-- Window Right -->
            <rect x="400" y="250" width="80" height="80" fill="#e2e8f0" stroke="#94a3b8" stroke-width="10"/>
            <!-- Smart Home Elements -->
            <circle cx="300" cy="300" r="120" fill="none" stroke="#94a3b8" stroke-width="10" stroke-dasharray="20,10"/>
            <circle cx="300" cy="300" r="60" fill="#94a3b8" opacity="0.2"/>
            <!-- WiFi Signals -->
            <path d="M280,290 Q300,270 320,290" stroke="#94a3b8" stroke-width="10" fill="none"/>
            <path d="M260,270 Q300,230 340,270" stroke="#94a3b8" stroke-width="10" fill="none" opacity="0.7"/>
            <path d="M240,250 Q300,190 360,250" stroke="#94a3b8" stroke-width="10" fill="none" opacity="0.4"/>
        </g>
    </g>
</svg> 